<svg width="17" height="18" viewBox="0 0 17 18" fill="none" xmlns="http://www.w3.org/2000/svg">
<path d="M13.4157 12.7324L17 16.3158L15.8158 17.5L12.2324 13.9157C10.8991 14.9846 9.24062 15.5659 7.53175 15.5635C3.37422 15.5635 0 12.1893 0 8.03175C0 3.87422 3.37422 0.5 7.53175 0.5C11.6893 0.5 15.0635 3.87422 15.0635 8.03175C15.0659 9.74062 14.4846 11.3991 13.4157 12.7324ZM11.737 12.1115C12.7988 11.0191 13.3919 9.55515 13.3898 8.03175C13.3898 4.79561 10.7679 2.17372 7.53175 2.17372C4.29561 2.17372 1.67372 4.79561 1.67372 8.03175C1.67372 11.2679 4.29561 13.8898 7.53175 13.8898C9.05515 13.8919 10.5191 13.2988 11.6115 12.237L11.737 12.1115Z" fill="black"/>
</svg>
